<?xml version="1.0" standalone="no"?>
<!DOCTYPE svg PUBLIC "-//W3C//DTD SVG 1.1//EN" "http://www.w3.org/Graphics/SVG/1.1/DTD/svg11.dtd" >
<svg xmlns="http://www.w3.org/2000/svg">
<metadata>Generated by IcoMoon</metadata>
<defs>
<font id="icomoon" horiz-adv-x="1024">
<font-face units-per-em="1024" ascent="960" descent="-64" />
<missing-glyph horiz-adv-x="1024" />
<glyph unicode="&#x20;" horiz-adv-x="512" d="" />
<glyph unicode="&#xe900;" glyph-name="approve" d="M583.782 780.851c-7.445 8.257-16.475 14.926-26.63 19.556-5.879 2.494-12.156 4.345-18.685 5.46l-3.069 0.533-2.458-0.256c-12.39-1.28-19.046-3.584-26.112-11.776-5.274-6.246-7.322-10.394-18.893-36.506-27.494-70.707-54.938-129.536-78.131-163.84-11.264-16.64-22.067-29.952-32-40.243-3.503-3.75-7.197-7.2-11.113-10.388l-8.292-6.099v-287.795c0-28.109 23.706-57.498 50.534-57.498h271.36c25.344 0 50.893 22.579 60.262 50.995l76.8 297.318c9.421 37.786-18.893 61.286-59.392 61.286h-169.011c14.899 87.552 30.72 141.824-5.171 179.251zM274.739 192c29.491 0 52.992 26.726 52.992 59.085v250.419c0 32.41-23.501 59.136-52.992 59.136h-16.896c-29.542 0-53.043-26.726-53.043-59.136v-250.368c0-32.461 23.552-59.136 53.043-59.136h16.896z" />
<glyph unicode="&#xe901;" glyph-name="exit-fullscreen" d="M646.080 544l146.72 146.752-45.248 45.248-139.552-139.52v139.52h-64v-256h256v64h-153.92zM395.52 352l-171.52-171.52 45.248-45.28 146.752 146.72v-121.92h64v256h-256v-64h171.52z" />
<glyph unicode="&#xe902;" glyph-name="get" d="M380.16 128c83.776 114.88 170.496 216.832 234.912 288.64 37.251 41.705 72.483 79.349 108.547 116.177 30.333 30.767 61.021 59.567 90.525 86.639 50.24 46.144 109.024 97.28 145.984 119.168l-47.168 61.376c-68.416-42.016-134.304-86.848-185.152-121.344-29.632-20.096-57.152-39.36-83.072-57.792-25.664-18.24-52.16-38.24-80.128-59.2-67.371-50.836-123.109-95.416-177.675-141.345l-145.077 145.633-177.856-137.472 316.16-300.48z" />
<glyph unicode="&#xe903;" glyph-name="arrow" d="M287.615 463.829l-23.357-23.357 420.432-420.432 46.715 46.715-373.717 373.717 373.717 373.717-46.715 46.715-397.075-397.075z" />
<glyph unicode="&#xe904;" glyph-name="close" d="M557.255 448l271.529 271.529-45.255 45.255-271.529-271.529-271.529 271.529-45.255-45.255 271.529-271.529-271.529-271.529 45.255-45.255 271.529 271.529 271.529-271.529 45.255 45.255-271.529 271.529z" />
<glyph unicode="&#xe905;" glyph-name="comment" d="M256 639.781c0 17.794 14.228 32.219 32.028 32.219h447.944c17.689 0 32.028-14.584 32.028-32.079v-319.842c0-17.717-14.32-32.079-31.952-32.079h-384.048l-96-64v415.781z" />
<glyph unicode="&#xe906;" glyph-name="end" horiz-adv-x="1722" d="M51.2-8.145h1456.873v-46.545h-1456.873v46.545zM116.364 108.218c74.473 18.618 214.109 51.2 288.582 51.2 13.964 4.655 18.618 9.309 13.964 23.273-13.964 37.236-46.545 60.509-111.709 55.855-51.2-4.655-139.636-18.618-200.145-41.891 27.927 60.509 60.509 134.982 102.4 204.8 74.473 18.618 172.218 37.236 242.036 37.236 18.618 0 18.618 9.309 13.964 18.618-18.618 41.891-46.545 65.164-111.709 60.509-23.273 0-55.855-4.655-93.091-9.309 65.164 116.364 125.673 228.073 181.527 307.2 79.127 13.964 172.218 37.236 265.309 37.236 13.964-4.655 18.618 4.655 13.964 18.618-13.964 41.891-46.545 65.164-97.745 65.164-74.473 0-214.109-37.236-325.818-32.582-13.964-4.655-18.618-9.309-18.618-18.618 9.309-27.927 23.273-51.2 55.855-65.164-111.709-167.564-242.036-409.6-297.891-572.509-13.964-37.236-13.964-51.2 0-74.473 9.309-18.618 18.618-37.236 27.927-46.545 13.964-23.273 27.927-23.273 51.2-18.618zM1647.709 741.236c55.855 97.745 60.509 153.6 41.891 195.491-4.655 18.618-18.618 18.618-32.582 0-46.545-65.164-144.291-242.036-214.109-377.018 0 46.545-23.273 88.436-79.127 88.436-65.164 0-167.564-60.509-274.618-209.455-32.582-51.2-55.855-102.4-65.164-148.945-46.545-74.473-97.745-139.636-144.291-139.636-46.545-4.655-55.855 60.509-18.618 134.982 27.927 69.818 93.091 162.909 121.018 223.418 32.582 69.818-9.309 130.327-51.2 139.636-41.891 4.655-130.327-65.164-190.836-125.673 13.964 46.545 13.964 93.091-4.655 125.673-9.309 13.964-18.618 13.964-27.927 0-83.782-121.018-181.527-302.545-209.455-386.327-18.618-65.164-13.964-107.055 13.964-134.982 13.964-13.964 18.618-4.655 23.273 4.655 55.855 121.018 111.709 246.691 190.836 330.473 83.782 93.091 158.255 125.673 172.218 121.018 23.273-9.309-93.091-148.945-134.982-274.618-37.236-111.709-13.964-195.491 97.745-195.491 55.855 0 116.364 37.236 158.255 88.436 13.964-51.2 46.545-83.782 102.4-83.782 60.509 0 121.018 46.545 162.909 102.4 0-60.509 37.236-102.4 107.055-102.4 69.818-4.655 153.6 65.164 186.182 134.982 18.618 37.236 13.964 69.818 9.309 79.127s-13.964 9.309-18.618 0c-46.545-88.436-116.364-176.873-167.564-181.527-46.545-4.655-41.891 51.2-9.309 125.673 65.164 134.982 190.836 349.091 256 465.455zM1321.891 350.255c-60.509-116.364-130.327-195.491-181.527-195.491s-37.236 116.364 32.582 228.073c69.818 116.364 167.564 195.491 209.455 195.491 37.236 0 18.618-83.782-60.509-228.073z" />
<glyph unicode="&#xe907;" glyph-name="fullscreen" d="M690.745 672l-402.745-402.745v146.745h-64v-256h256v64h-146.745l402.745 402.745v-146.745h64v256h-256v-64h146.745z" />
<glyph unicode="&#xe908;" glyph-name="like" d="M270.641 423.32c-66.649 66.649-66.649 174.71 0 241.359s174.71 66.649 241.359 0c66.649 66.649 174.71 66.649 241.359 0s66.649-174.71 0-241.359l-218.653-218.653c-12.54-12.54-32.77-12.643-45.413 0l-218.653 218.653z" />
<glyph unicode="&#xe909;" glyph-name="search" horiz-adv-x="975" d="M708.78 226.839c142.82 142.82 142.82 374.378 0 517.198s-374.378 142.82-517.198 0c-142.82-142.82-142.82-374.378 0-517.198s374.378-142.82 517.198 0zM760.5 175.119c-171.384-171.384-449.253-171.384-620.638 0s-171.384 449.253 0 620.638c171.384 171.384 449.253 171.384 620.638 0s171.384-449.253 0-620.638zM698.058 183.551l51.72 51.72 206.879-206.879-51.72-51.72-206.879 206.879z" />
<glyph unicode="&#xe90a;" glyph-name="share" d="M548.249 360.71v-168.71l283.751 256.009-283.77 255.991v-169.841c-260.23 0-356.23-161.582-356.23-342.159 96 168.71 356.249 168.71 356.249 168.71z" />
<glyph unicode="&#xe90b;" glyph-name="wechat" d="M685.954 403.529c-10.854 0-21.803 11.020-21.803 22.26 0 11.085 10.949 22.248 21.803 22.248 16.452 0 27.475-11.163 27.475-22.248 0.001-11.24-11.023-22.26-27.475-22.26zM565.212 403.529c-10.93 0-21.955 11.020-21.955 22.26 0 11.085 11.025 22.248 21.955 22.248 16.603 0 27.477-11.163 27.477-22.248 0-11.24-10.874-22.26-27.477-22.26zM812.199 375.692c0 88.943-87.821 161.442-186.454 161.442-104.442 0-186.701-72.499-186.701-161.442 0-89.095 82.259-161.441 186.701-161.441 21.86 0 43.908 5.587 65.863 11.164l60.209-33.415-16.508 55.596c44.061 33.501 76.89 77.925 76.89 128.097zM340.199 553.798c-16.45 0-33.054 11.173-33.054 27.847 0 16.741 16.603 27.76 33.054 27.76s27.402-11.020 27.402-27.76c0-16.674-10.95-27.847-27.402-27.847zM493.827 609.404c16.528 0 27.477-11.020 27.477-27.76 0-16.673-10.949-27.847-27.477-27.847-16.453 0-32.961 11.174-32.961 27.847 0 16.742 16.508 27.76 32.961 27.76zM611.854 549.088c7.115 0 14.156-0.53 21.139-1.318-18.994 89.633-113.551 156.23-221.482 156.23-120.666 0-219.511-83.355-219.511-189.202 0-61.097 32.885-111.269 87.837-150.183l-21.955-66.922 76.737 38.999c27.459-5.509 49.488-11.172 76.891-11.172 6.888 0 13.718 0.345 20.492 0.885-4.288 14.873-6.773 30.452-6.773 46.615 0.001 97.192 82.355 176.068 186.626 176.068z" />
<glyph unicode="&#xe90c;" glyph-name="weibo" d="M459.321 350.94c-3.547-6.16-11.393-9.123-17.538-6.555-6.045 2.521-7.945 9.418-4.505 15.476 3.532 6.020 11.071 8.96 17.101 6.532 6.129-2.273 8.328-9.247 4.942-15.453zM426.988 308.793c-9.815-15.903-30.831-22.877-46.66-15.531-15.607 7.215-20.212 25.685-10.397 41.193 9.7 15.445 30.011 22.326 45.726 15.632 15.891-6.881 20.97-25.235 11.332-41.294zM463.856 421.348c-48.285 12.753-102.86-11.683-123.83-54.9-21.361-44.071-0.713-92.998 48.078-108.986 50.53-16.555 110.092 8.813 130.802 56.382 20.426 46.507-5.080 94.386-55.050 107.504zM752.926 649.604c-40.255 45.335-99.642 62.611-154.447 50.781h-0.023c-12.68-2.762-20.771-15.43-18.051-28.292 2.705-12.862 15.178-21.093 27.858-18.339 38.991 8.409 81.184-3.894 109.809-36.096 28.586-32.202 36.355-76.125 24.112-114.626v-0.008c-3.984-12.544 2.766-25.957 15.132-30.014 12.313-4.049 25.552 2.8 29.544 15.313 0 0.023 0 0.070 0.008 0.093 17.185 54.156 6.329 115.898-33.942 161.187zM693.181 492.691c10.619-3.452 22.012 2.428 25.437 13.227 8.39 26.384 3.141 56.452-16.496 78.53-19.591 22.078-48.522 30.464-75.231 24.692-10.91-2.358-17.867-13.273-15.53-24.367 2.337-11.055 13.071-18.153 23.958-15.74v-0.023c13.056 2.8 27.215-1.288 36.792-12.063 9.585-10.791 12.159-25.499 8.053-38.408h0.015c-3.417-10.775 2.383-22.357 13.002-25.848zM449.49 230.181c-101.473-10.17-189.063 36.414-195.652 104.083-6.597 67.654 70.351 130.754 171.808 140.94 101.481 10.193 189.078-36.391 195.659-104.029 6.581-67.693-70.328-130.8-171.816-140.994zM652.451 454.794c-8.635 2.638-14.557 4.422-10.029 15.942 9.784 25.010 10.803 46.584 0.184 61.975-19.898 28.881-74.342 27.314-136.74 0.776 0 0.039-19.599-8.704-14.588 7.083 9.6 31.341 8.152 57.6-6.788 72.751-33.858 34.413-123.891-1.296-201.092-79.694-57.824-58.733-91.398-120.979-91.398-174.801 0-102.951 129.982-165.547 257.153-165.547 166.698 0 277.587 98.374 277.587 176.477 0 47.189-39.129 73.968-74.289 85.039z" />
<glyph unicode="&#xe90d;" glyph-name="message" d="M224 607.936c0 0.038 0 0.083 0 0.128 0 17.582 14.207 31.845 31.768 31.936h512.457c17.536 0 31.776-14.592 31.776-32.064v-351.936h-576v351.936zM224 608v-64l258.816-115.008c16.064-7.168 42.24-7.168 58.368 0l258.816 115.008v64h-576zM224 640h576v-64l-258.816-115.008c-16.096-7.168-42.304-7.168-58.368 0l-258.816 115.008v64z" />
<glyph unicode="&#xe90e;" glyph-name="more" d="M160 544h160v-160h-160v160zM448 544h160v-160h-160v160zM736 544h160v-160h-160v160z" />
<glyph unicode="&#xe90f;" glyph-name="unorderlist" d="M354.462 723.692h472.615v-78.769h-472.615v78.769zM354.462 487.385h472.615v-78.769h-472.615v78.769zM354.462 251.077h472.615v-78.769h-472.615v78.769zM157.538 743.385h118.154v-118.154h-118.154v118.154zM157.538 507.077h118.154v-118.154h-118.154v118.154zM157.538 270.769h118.154v-118.154h-118.154v118.154z" />
<glyph unicode="&#xe910;" glyph-name="image" d="M275.692 211.692h472.615v472.615h-472.615v-472.615zM196.923 763.077h630.154v-630.154h-630.154v630.154zM318.179 251.077c-2.025 12.588-3.102 25.785-3.102 39.385 0 87.006 44.083 157.538 98.462 157.538 26.314 0 50.218-16.516 67.882-43.424 17.659 71.7 59.966 122.193 109.349 122.193 65.255 0 118.154-88.165 118.154-196.923 0-28.007-3.508-54.648-9.831-78.769h-380.913z" />
<glyph unicode="&#xe911;" glyph-name="indent" d="M354.462 723.692h433.231v-78.769h-433.231v78.769zM196.923 566.154h590.769v-78.769h-590.769v78.769zM196.923 408.615h590.769v-78.769h-590.769v78.769zM196.923 251.077h590.769v-78.769h-590.769v78.769z" />
<glyph unicode="&#xe912;" glyph-name="orderlist" d="M393.846 723.692h472.615v-78.769h-472.615v78.769zM393.846 487.385h472.615v-78.769h-472.615v78.769zM393.846 251.077h472.615v-78.769h-472.615v78.769zM208.308 605.538h48.923v166.5h-48.923l-41.769-27.923v-40.962l40.846 27h0.923zM164.692 483.462v-0.923h44.538v1.038c0 12.115 9 20.654 21.692 20.654 12.577 0 19.846-7.038 19.846-16.038 0-9.231-5.077-17.192-16.269-27.231l-66.923-59.192v-32.538h132.231v36.923h-69.115v0.923l39.115 34.615c8.885 7.846 28.038 25.154 28.038 48 0 30.231-24.808 50.654-65.192 50.654-41.192 0-67.962-22.846-67.962-56.885zM214.654 201.462h20.077c13.846 0 22.038-6.462 22.038-17.308 0-10.731-8.654-17.885-21.577-17.885-14.308 0-23.077 6.808-23.423 17.885h-46.615c1.615-33.923 28.615-55.846 69-55.846 44.192 0 72.346 19.731 72.346 50.885 0 22.731-16.038 37.154-40.5 39.808v0.923c20.077 3.577 34.731 18.115 34.731 38.192 0 28.154-24.923 45.923-64.269 45.923-40.962 0-68.077-22.038-68.192-55.385h44.077c0 11.654 8.885 19.731 22.038 19.731 13.385 0 21.346-6.462 21.346-16.962 0-10.615-7.962-17.192-20.769-17.192h-20.308v-32.769z" />
<glyph unicode="&#xe913;" glyph-name="underline" d="M515.231 723.692v-18c-27.462-0.923-45.808-5.192-55.038-12.808s-13.846-25.038-13.846-52.269v-237.115c0-36 4.269-63.808 12.808-83.423 15.462-36.462 45.115-54.692 88.962-54.692 54.462 0 91.269 20.192 110.423 60.577 10.615 22.154 15.923 53.192 15.923 93.115v216.692c0 25.385-4.673 42.865-14.019 52.442s-27.634 15.404-54.865 17.481v18h155.769v-18c-22.615-4.385-37.558-9.75-44.827-16.096s-10.904-20.942-10.904-43.788v-226.731c0-60.231-14.538-106.731-43.615-139.5s-74.769-49.154-137.077-49.154c-81.462 0-137.192 24.346-167.192 73.038-15.923 25.846-23.885 59.192-23.885 100.038v237.115c0 26.769-3.519 43.615-10.558 50.538s-22.904 11.769-47.596 14.538v18h239.538zM275.692 172.308h512v-59.077h-512v59.077z" />
<glyph unicode="&#xe914;" glyph-name="add" d="M480 480h-480v-64h480v-480h64v480h480v64h-480v480h-64v-480z" />
<glyph unicode="&#xe915;" glyph-name="bold" d="M236.308 160.154c23.41 0.846 40.192 3.949 50.346 9.308 17.205 9.026 25.808 26.231 25.808 51.615v419.269c0 25.385-8.038 42.449-24.115 51.192-9.59 5.359-26.936 8.744-52.038 10.154v22h267.808c51.616 0 94.487-5.923 128.615-17.769 64.308-22.282 96.462-62.897 96.462-121.846 0-35.821-13.045-64.237-39.135-85.25s-54.365-34.34-84.827-39.981v-8.038c32.154-6.205 60.077-16.641 83.769-31.308 46.257-28.769 69.385-68.82 69.385-120.154 0-47.949-22.141-86.801-66.423-116.558s-103.23-44.635-176.846-44.635h-278.808v22zM558.692 487.192c18.333 17.487 27.5 48.513 27.5 93.077 0 33-5.994 60.782-17.981 83.346s-35.045 33.846-69.173 33.846c-18.051 0-30.603-3.032-37.654-9.096s-10.577-16.994-10.577-32.788v-194.615c53.59 0 89.551 8.744 107.885 26.231zM457.577 184.692c7.051-12.41 20.59-18.615 40.615-18.615 40.898 0 69.596 11.141 86.096 33.423s24.75 54.013 24.75 95.192c0 61.487-18.192 102.385-54.577 122.692-22 12.41-56.551 18.192-103.654 17.346v-216.615c0.282-15.231 2.538-26.372 6.769-33.423z" />
<glyph unicode="&#xe916;" glyph-name="clear" d="M679.507 802.477l-473.442-473.442 201.886-201.886h264.625l341.11 341.11-334.178 334.218zM317.444 329.035l181.051 181.012 222.759-222.759-81.29-81.369h-199.404l-123.116 123.116zM136.862 545.067l-69.632 69.632-27.845-27.884 69.632-69.593-69.632-69.632 27.845-27.845 69.632 69.632 69.632-69.632 27.845 27.845-69.632 69.632 69.632 69.593-27.845 27.884z" />
<glyph unicode="&#xe917;" glyph-name="italic" d="M334.154 154.923c20.59 2.538 35.82 7.615 45.692 15.231s18.051 23.269 24.538 46.962l106.192 388.808c3.103 11 5.429 20.237 6.981 27.712s2.327 14.032 2.327 19.673c0 14.667-4.090 23.904-12.269 27.712s-25.243 6.84-51.192 9.096v22.423h257.654v-22.423c-21.154-2.821-36.455-7.897-45.904-15.231s-17.417-22.987-23.904-46.962l-106.615-388.808-6.769-30.038c-0.564-2.821-1.058-5.712-1.481-8.673s-0.635-5.712-0.635-8.25c0-14.667 3.949-23.974 11.846-27.923s24.961-7.051 51.192-9.308v-22h-257.654v22z" />
<glyph unicode="&#xe918;" glyph-name="link" d="M730.835 451.958l55.517 55.517c61.618 61.618 61.704 161.452 0.181 222.974-61.397 61.397-161.352 61.441-222.974-0.181l-138.883-138.883c-61.618-61.618-61.704-161.452-0.181-222.974l55.698 55.698c-30.761 30.761-30.749 80.647-0.073 111.324l139.391 139.391c30.721 30.721 80.348 30.903 111.324-0.073 30.761-30.761 30.749-80.647 0.073-111.324l-55.771-55.771 55.698-55.698zM285.249 451.958l-55.517-55.517c-61.618-61.618-61.704-161.452-0.181-222.974 61.397-61.397 161.352-61.441 222.974 0.181l138.883 138.883c61.618 61.618 61.704 161.452 0.181 222.974l-55.698-55.698c30.761-30.761 30.749-80.647 0.073-111.324l-139.391-139.391c-30.721-30.721-80.348-30.903-111.324 0.073-30.761 30.761-30.749 80.647-0.073 111.324l55.771 55.771-55.698 55.698z" />
<glyph unicode="&#xe919;" glyph-name="quote" d="M537.6 405.333v174.605c0 23.631 3.829 45.402 11.487 65.313s18.489 37.525 32.492 52.841c14.003 15.316 31.070 28.444 51.2 39.385s42.448 19.036 66.954 24.287v-97.805c-12.253-3.938-22.099-8.424-29.538-13.456s-13.238-11.050-17.395-18.051c-4.157-7.002-6.892-14.769-8.205-23.303s-1.969-18.27-1.969-29.21v-2.626h57.108v-171.979h-162.133zM343.303 405.333v174.605c0 23.631 3.829 45.402 11.487 65.313s18.489 37.525 32.492 52.841c14.003 15.316 31.070 28.444 51.2 39.385s42.448 19.036 66.954 24.287v-97.805c-12.253-3.938-22.099-8.424-29.538-13.456s-13.238-11.050-17.395-18.051c-4.157-7.002-6.892-14.769-8.205-23.303s-1.969-18.27-1.969-29.21v-2.626h57.108v-171.979h-162.133z" />
<glyph unicode="&#xe91a;" glyph-name="place" d="M512 106.667c0 0-227.556 272.547-227.556 398.222s101.88 227.556 227.556 227.556c125.675 0 227.556-101.88 227.556-227.556s-227.556-398.222-227.556-398.222zM512 391.111c62.838 0 113.778 50.94 113.778 113.778s-50.94 113.778-113.778 113.778c-62.838 0-113.778-50.94-113.778-113.778s50.94-113.778 113.778-113.778z" />
<glyph unicode="&#xe91b;" glyph-name="gotop" d="M448 352h-160l224 192 224-192h-160v-224h-128v224zM288 736h448v-64h-448z" />
<glyph unicode="&#xe91c;" glyph-name="download" d="M544 432.48l103.776 103.744 45.248-45.248-181.024-181.024-181.024 181.024 45.248 45.248 103.776-103.744v367.52h64v-367.52zM192 320h64v-192h-64zM768 192v-64h-512v64zM768 320h64v-192h-64z" />
<glyph unicode="&#xe91d;" glyph-name="2arrow" d="M278.624 470.624l-22.624-22.624 271.52-271.52 45.248 45.248-226.208 226.272 226.24 226.272-45.248 45.248-248.896-248.896zM470.624 470.624l-22.624-22.624 271.52-271.52 45.248 45.248-226.208 226.272 226.24 226.272-45.248 45.248-248.896-248.896z" />
<glyph unicode="&#xe91e;" glyph-name="edit2" d="M712.35 721.526c10.634 10.634 25.325 17.211 41.551 17.211 16.344 0 31.13-6.673 41.781-17.442 23.085-23.045 23.242-60.264 0.202-83.304l-445.755-445.834-111.38-27.845 27.845 111.419 445.834 445.794zM670.366 679.542l-41.748-41.787 83.495-83.535 41.787 41.748-83.535 83.574z" />
<glyph unicode="&#xe91f;" glyph-name="edit" d="M642.768 840.139c16.242 28.132 52.118 37.827 80.571 21.4 28.256-16.314 37.871-52.559 21.753-80.477l-384.129-665.331-110.239-72.786 7.915 131.863 384.129 665.331zM613.1 788.753l-29.538-51.162 102.324-59.077 29.538 51.162-102.324 59.077zM472.615 93.538h315.077c21.752 0 39.385-17.633 39.385-39.385s-17.633-39.385-39.385-39.385h-315.077c-21.752 0-39.385 17.633-39.385 39.385s17.633 39.385 39.385 39.385z" />
<glyph unicode="&#xe920;" glyph-name="icon-go" horiz-adv-x="1103" d="M894.11 466.432l-352.177 352.256c-3.73 3.552-6.049 8.555-6.049 14.1s2.32 10.548 6.041 14.092l42.228 42.228c3.548 3.705 8.535 6.008 14.060 6.008s10.512-2.303 14.054-6.001l460.019-460.019c3.73-3.552 6.049-8.555 6.049-14.1s-2.32-10.548-6.041-14.092l-458.996-458.918c-3.552-3.73-8.555-6.049-14.1-6.049s-10.548 2.32-14.092 6.041l-42.228 42.228c-3.73 3.552-6.049 8.555-6.049 14.1s2.32 10.548 6.041 14.092l0.008 0.008 352.256 353.28h-890.25c-11.028 0 0 38.754 0 49.861v50.806c0 7.404 296.409 7.404 889.305 0z" />
<glyph unicode="&#xe921;" glyph-name="icon-nike" d="M834.702 700.248c-10.501 0-19.987-4.329-26.782-11.296l-0.033 0.032-402.115-402.558-188.524 189.171c-6.851 7.694-16.832 12.548-27.945 12.548-20.67 0-37.422-16.753-37.422-37.423 0-11.060 4.804-20.997 12.435-27.848l-0.044-0.041 214.907-215.769c0.048-0.048 0.092-0.1 0.144-0.148 6.783-6.866 16.205-11.12 26.617-11.12 10.425 0 19.855 4.265 26.639 11.141l427.774 428.661c7.243 6.823 11.768 16.498 11.768 27.23 0 20.67-16.753 37.422-37.418 37.422v0z" />
</font>
</defs>
</svg>
